<svg width="123" height="81" viewBox="0 0 123 81" fill="none" xmlns="http://www.w3.org/2000/svg">
<rect x="74" y="69" width="48" height="12" rx="6" fill="#EC8C34"/>
<rect x="43" y="81" width="43" height="12" rx="6" transform="rotate(180 43 81)" fill="#82375A"/>
<rect x="50" y="69" width="17" height="12" rx="6" fill="#C75453"/>
<path d="M74.1523 19.25H92.5859L98.1289 28.3164L103.457 19.25H121.762L107.41 39.4453L122.105 60.5H104.445L98.1289 50.1875L91.8984 60.5H74.4531L88.8477 39.4453L74.1523 19.25Z" fill="#382541"/>
<path d="M66.7812 0V60.5H50.2812V0H66.7812Z" fill="#382541"/>
<path d="M16.5 60.5H0V19.25H15.0391L15.4258 23.2031C17.7461 20.3672 22.3438 18.3906 28.2305 18.3906C36.9961 18.3906 43.0117 24.2344 43.0117 32.8281V60.5H26.5117V37.7266C26.5117 34.8047 24.4492 32.7852 21.4844 32.7852C18.5195 32.7852 16.5 34.8047 16.5 37.7266V60.5Z" fill="#382541"/>
</svg>
