<svg width="124" height="81" viewBox="0 0 124 81" fill="none" xmlns="http://www.w3.org/2000/svg">
<rect x="75" y="69" width="48" height="11" rx="5.5" fill="#EC8C34"/>
<rect x="43" y="81" width="43" height="11" rx="5.5" transform="rotate(180 43 81)" fill="#82375A"/>
<rect x="53" y="70" width="17" height="10" rx="5" fill="#C75453"/>
<path d="M75.1523 19.25H93.5859L99.1289 28.3164L104.457 19.25H122.762L108.41 39.4453L123.105 60.5H105.445L99.1289 50.1875L92.8984 60.5H75.4531L89.8477 39.4453L75.1523 19.25Z" fill="#FFDCC1"/>
<path d="M69.7812 0V60.5H53.2812V0H69.7812Z" fill="#FFDCC1"/>
<path d="M16.5 60.5H0V19.25H15.0391L15.4258 23.2031C17.7461 20.3672 22.3438 18.3906 28.2305 18.3906C36.9961 18.3906 43.0117 24.2344 43.0117 32.8281V60.5H26.5117V37.7266C26.5117 34.8047 24.4492 32.7852 21.4844 32.7852C18.5195 32.7852 16.5 34.8047 16.5 37.7266V60.5Z" fill="#FFDCC1"/>
</svg>
